<svg viewBox="0 0 168 89" fill="none" xmlns="http://www.w3.org/2000/svg">
	<path
    d="M5.86364 27.0909H15.5455V63.7273C15.5455 66.4242 15.0152 68.6061 13.9545 70.2727C12.8939 71.9394 11.3712 73.1591 9.38636 73.9318C7.41667 74.7045 5.06061 75.0909 2.31818 75.0909C1.98485 75.0909 1.66667 75.0833 1.36364 75.0682C1.04545 75.0682 0.712121 75.0606 0.363636 75.0455V67.4773C0.621212 67.4924 0.848485 67.5 1.04545 67.5C1.22727 67.5152 1.42424 67.5227 1.63636 67.5227C3.19697 67.5227 4.28788 67.1894 4.90909 66.5227C5.54545 65.8712 5.86364 64.8864 5.86364 63.5682V27.0909ZM10.6818 22.5909C9.25758 22.5909 8.0303 22.1136 7 21.1591C5.9697 20.1894 5.45455 19.0303 5.45455 17.6818C5.45455 16.3485 5.9697 15.2045 7 14.25C8.0303 13.2803 9.25758 12.7955 10.6818 12.7955C12.1364 12.7955 13.3712 13.2803 14.3864 14.25C15.4167 15.2045 15.9318 16.3485 15.9318 17.6818C15.9318 19.0303 15.4167 20.1894 14.3864 21.1591C13.3712 22.1136 12.1364 22.5909 10.6818 22.5909ZM30.3757 62.6591C28.1484 62.6591 26.1636 62.2727 24.4211 61.5C22.6787 60.7121 21.2999 59.553 20.2848 58.0227C19.2848 56.4773 18.7848 54.553 18.7848 52.25C18.7848 50.3106 19.1408 48.6818 19.853 47.3636C20.5651 46.0455 21.5348 44.9848 22.762 44.1818C23.9893 43.3788 25.3833 42.7727 26.9439 42.3636C28.5196 41.9545 30.1711 41.6667 31.8984 41.5C33.9287 41.2879 35.5651 41.0909 36.8075 40.9091C38.0499 40.7121 38.9514 40.4242 39.512 40.0455C40.0727 39.6667 40.353 39.1061 40.353 38.3636V38.2273C40.353 36.7879 39.8984 35.6742 38.9893 34.8864C38.0954 34.0985 36.8227 33.7045 35.1711 33.7045C33.4287 33.7045 32.0423 34.0909 31.012 34.8636C29.9817 35.6212 29.2999 36.5758 28.9666 37.7273L20.012 37C20.4666 34.8788 21.3605 33.0455 22.6939 31.5C24.0272 29.9394 25.7469 28.7424 27.853 27.9091C29.9742 27.0606 32.4287 26.6364 35.2166 26.6364C37.156 26.6364 39.012 26.8636 40.7848 27.3182C42.5727 27.7727 44.156 28.4773 45.5348 29.4318C46.9287 30.3864 48.0272 31.6136 48.8302 33.1136C49.6333 34.5985 50.0348 36.3788 50.0348 38.4545V62H40.853V57.1591H40.5802C40.0196 58.25 39.2696 59.2121 38.3302 60.0455C37.3908 60.8636 36.262 61.5076 34.9439 61.9773C33.6257 62.4318 32.103 62.6591 30.3757 62.6591ZM33.1484 55.9773C34.5727 55.9773 35.8302 55.697 36.9211 55.1364C38.012 54.5606 38.8681 53.7879 39.4893 52.8182C40.1105 51.8485 40.4211 50.75 40.4211 49.5227V45.8182C40.1181 46.0152 39.7014 46.197 39.1711 46.3636C38.656 46.5152 38.0727 46.6591 37.4211 46.7955C36.7696 46.9167 36.1181 47.0303 35.4666 47.1364C34.8151 47.2273 34.2242 47.3106 33.6939 47.3864C32.5575 47.553 31.5651 47.8182 30.7166 48.1818C29.8681 48.5455 29.209 49.0379 28.7393 49.6591C28.2696 50.2652 28.0348 51.0227 28.0348 51.9318C28.0348 53.25 28.512 54.2576 29.4666 54.9545C30.4363 55.6364 31.6636 55.9773 33.1484 55.9773ZM61.5525 62L52.0525 27.0909H61.848L67.257 50.5455H67.5752L73.2116 27.0909H82.8252L88.5525 50.4091H88.848L94.1661 27.0909H103.939L94.4616 62H84.2116L78.2116 40.0455H77.7798L71.7798 62H61.5525ZM121.258 62.6818C117.667 62.6818 114.576 61.9545 111.985 60.5C109.409 59.0303 107.424 56.9545 106.03 54.2727C104.637 51.5758 103.94 48.3864 103.94 44.7045C103.94 41.1136 104.637 37.9621 106.03 35.25C107.424 32.5379 109.387 30.4242 111.917 28.9091C114.462 27.3939 117.447 26.6364 120.871 26.6364C123.174 26.6364 125.318 27.0076 127.303 27.75C129.303 28.4773 131.046 29.5758 132.53 31.0455C134.03 32.5152 135.197 34.3636 136.03 36.5909C136.864 38.803 137.28 41.3939 137.28 44.3636V47.0227H107.803V41.0227H128.167C128.167 39.6288 127.864 38.3939 127.258 37.3182C126.652 36.2424 125.811 35.4015 124.735 34.7955C123.674 34.1742 122.44 33.8636 121.03 33.8636C119.561 33.8636 118.258 34.2045 117.121 34.8864C116 35.553 115.121 36.4545 114.485 37.5909C113.849 38.7121 113.523 39.9621 113.508 41.3409V47.0455C113.508 48.7727 113.826 50.2652 114.462 51.5227C115.114 52.7803 116.03 53.75 117.212 54.4318C118.394 55.1136 119.796 55.4545 121.417 55.4545C122.493 55.4545 123.477 55.303 124.371 55C125.265 54.697 126.03 54.2424 126.667 53.6364C127.303 53.0303 127.788 52.2879 128.121 51.4091L137.076 52C136.621 54.1515 135.69 56.0303 134.28 57.6364C132.887 59.2273 131.083 60.4697 128.871 61.3636C126.674 62.2424 124.137 62.6818 121.258 62.6818Z"
    fill="#CCCCCC"
  />
	<path
    d="M98.3551 80.2131C97.7964 80.2131 97.3134 80.0142 96.9062 79.6165C96.5085 79.2093 96.3097 78.7263 96.3097 78.1676C96.3097 77.5994 96.5085 77.1165 96.9062 76.7188C97.3134 76.321 97.7964 76.1222 98.3551 76.1222C98.9233 76.1222 99.4062 76.321 99.804 76.7188C100.202 77.1165 100.401 77.5994 100.401 78.1676C100.401 78.5369 100.306 78.8778 100.116 79.1903C99.9366 79.5028 99.6903 79.7538 99.3778 79.9432C99.0748 80.1231 98.7339 80.2131 98.3551 80.2131ZM113.135 80.4545C111.346 80.4545 109.778 79.9811 108.434 79.0341C107.089 78.0871 106.038 76.7661 105.28 75.071C104.532 73.3759 104.158 71.4015 104.158 69.1477C104.158 66.9034 104.532 64.9384 105.28 63.2528C106.038 61.5578 107.094 60.2415 108.448 59.304C109.802 58.357 111.379 57.8835 113.178 57.8835C114.504 57.8835 115.607 58.1203 116.488 58.5938C117.368 59.0578 118.074 59.6354 118.604 60.3267C119.134 61.018 119.546 61.6903 119.84 62.3438H120.067V50.9091H122.61V80H120.138V75.9517H119.84C119.546 76.6146 119.13 77.2964 118.59 77.9972C118.05 78.6884 117.335 79.2708 116.445 79.7443C115.564 80.2178 114.461 80.4545 113.135 80.4545ZM113.434 78.1392C114.845 78.1392 116.047 77.7557 117.042 76.9886C118.036 76.2121 118.794 75.1468 119.314 73.7926C119.845 72.429 120.11 70.8665 120.11 69.1051C120.11 67.3627 119.849 65.8239 119.329 64.4886C118.808 63.1439 118.05 62.0928 117.056 61.3352C116.062 60.5682 114.854 60.1847 113.434 60.1847C111.975 60.1847 110.744 60.5824 109.74 61.3778C108.746 62.1638 107.989 63.2292 107.468 64.5739C106.956 65.9186 106.701 67.429 106.701 69.1051C106.701 70.8002 106.961 72.3295 107.482 73.6932C108.003 75.0568 108.76 76.1411 109.755 76.946C110.758 77.7415 111.985 78.1392 113.434 78.1392ZM136.833 80.4545C134.797 80.4545 133.035 79.9811 131.548 79.0341C130.062 78.0777 128.911 76.7566 128.097 75.071C127.292 73.3759 126.889 71.4252 126.889 69.2188C126.889 67.0218 127.292 65.071 128.097 63.3665C128.911 61.6525 130.033 60.3125 131.463 59.3466C132.903 58.3712 134.565 57.8835 136.449 57.8835C137.633 57.8835 138.774 58.1013 139.872 58.5369C140.971 58.9631 141.956 59.6212 142.827 60.5114C143.708 61.392 144.404 62.5047 144.915 63.8494C145.426 65.1847 145.682 66.7661 145.682 68.5938V69.8438H128.637V67.6136H143.097C143.097 66.2121 142.813 64.9527 142.244 63.8352C141.686 62.7083 140.904 61.8182 139.901 61.1648C138.906 60.5114 137.756 60.1847 136.449 60.1847C135.066 60.1847 133.85 60.554 132.798 61.2926C131.747 62.0312 130.923 63.0066 130.327 64.2188C129.74 65.4309 129.441 66.7566 129.432 68.196V69.5312C129.432 71.2642 129.73 72.7794 130.327 74.0767C130.933 75.3646 131.79 76.3636 132.898 77.0739C134.006 77.7841 135.317 78.1392 136.833 78.1392C137.865 78.1392 138.769 77.9782 139.546 77.6562C140.332 77.3343 140.99 76.9034 141.52 76.3636C142.06 75.8144 142.467 75.2131 142.742 74.5597L145.142 75.3409C144.811 76.2595 144.266 77.107 143.509 77.8835C142.761 78.66 141.823 79.285 140.696 79.7585C139.579 80.2225 138.291 80.4545 136.833 80.4545ZM165.679 58.1818L157.71 80H155.011L147.042 58.1818H149.784L156.261 76.6619H156.46L162.937 58.1818H165.679Z"
    fill="#333333"
  />
</svg>
